# xmcd CD database file
#
# Track frame offsets:
#	150
#	16747
#	29025
#	41014
#	52350
#	65575
#	77070
#	86505
#	98012
#	110415
#	120967
#	132832
#	146172
#	159320
#
# Disc length: 2317 seconds
#
# Revision: 0
# Processed by: cddbd v1.5.2PL0 Copyright (c) Steve Scherf et al.
# Submitted via: CDex 1.51
#
DISCID=b9090b0e
DTITLE=Jack Kittel - Psycho
DYEAR=1973
DGENRE=Country
TTITLE0=Psycho
TTITLE1=Red Necks, White Socks And Blue Ribbon Beer
TTITLE2=Sawmill
TTITLE3=If We Make It Through December
TTITLE4=I Need Somebody Bad Tonight
TTITLE5=A Place For Girls Like You
TTITLE6=If You Can't Feel It
TTITLE7=I Can Feel The Leaving Coming On
TTITLE8=Hank
TTITLE9=Back Porch Light
TTITLE10=Once You've Had The Best
TTITLE11=In The Name Of Love
TTITLE12=The Girl Who Waits On Tables
TTITLE13=Loving On Borrowed Time
EXTD=YEAR: 1973
EXTT0=
EXTT1=
EXTT2=
EXTT3=
EXTT4=
EXTT5=
EXTT6=
EXTT7=
EXTT8=
EXTT9=
EXTT10=
EXTT11=
EXTT12=
EXTT13=
PLAYORDER=
